Coordinates
version=1
nRows=14
nColumns=36
inDegrees=yes

Units are S.I. units (second, meters, Newtons, ...)
If the header above contains a line with 'inDegrees', this indicates whether rotational values are in degrees (yes) or radians (no).

endheader
time	pelvis_tilt	pelvis_list	pelvis_rotation	pelvis_tx	pelvis_ty	pelvis_tz	hip_flexion_r	hip_adduction_r	hip_rotation_r	knee_angle_r	knee_angle_r_beta	ankle_angle_r	subtalar_angle_r	mtp_angle_r	hip_flexion_l	hip_adduction_l	hip_rotation_l	knee_angle_l	knee_angle_l_beta	ankle_angle_l	subtalar_angle_l	mtp_angle_l	lumbar_extension	lumbar_bending	lumbar_rotation	arm_flex_r	arm_add_r	arm_rot_r	elbow_flex_r	pro_sup_r	arm_flex_l	arm_add_l	arm_rot_l	elbow_flex_l	pro_sup_l
      0.00000000	     12.87175434	     -4.07709924	     11.08960417	      0.83029497	      0.93125901	     -0.03922405	     28.28179964	      0.81218251	     -4.09140498	     13.84751378	      0.24168471	    -13.41319055	     -6.49477931	     -6.38260870	     -5.91133048	      3.60818246	      5.10214110	     15.27100533	      0.26652932	     12.96654919	    -10.15863032	     -6.38260870	    -17.29787732	      0.10168379	     -0.35160985	     41.06104807	     11.92290326	     63.35526501	    120.00882320	    106.33179849	     56.84714758	     10.88546944	     65.63921895	    119.21973603	     97.86211864
      0.01666670	     11.19980539	     -3.64422452	     12.04116699	      0.84117975	      0.92241241	     -0.04129026	     28.45300029	     -1.57924892	     -2.35165119	      9.59529062	      0.16746941	    -13.91399210	     -3.89938225	     -6.41902627	     -6.54427029	      4.19018996	      9.50243909	     12.25016037	      0.21380563	     11.48691411	    -12.40620025	     -6.41902627	    -14.00243347	     -0.00660331	     -1.74495250	     40.29900881	     12.66986998	     65.12565890	    120.49299067	    106.85363909	     56.64133940	      8.70192199	     66.02557698	    124.41492836	     96.48759048
      0.03333330	     10.94249921	     -3.80488284	     11.46279075	      0.84172475	      0.92263857	     -0.04075855	     28.45108314	     -1.63971818	     -1.35166022	      9.07017612	      0.15830444	    -13.57656935	     -3.27349002	     -6.52538540	     -6.45889562	      3.89730232	      8.74801182	     11.65217465	      0.20336881	     11.22948862	    -12.43686854	     -6.52538540	    -13.37587465	      0.14193093	     -0.99311087	     39.24875613	     12.28122261	     66.81582875	    121.23238784	    105.46275934	     56.07478200	      8.25123727	     66.11443458	    126.35457503	     94.22184117
      0.05000000	     10.59868425	     -4.22155724	     11.95777123	      0.84248517	      0.92324563	     -0.04187627	     28.52967087	     -1.43358590	     -1.96639964	      8.92821709	      0.15582678	    -13.51068062	     -2.55943704	     -6.75278890	     -6.93653446	      3.16689186	      9.29938202	     10.01182587	      0.17473933	     10.19877919	    -11.75179708	     -6.75278890	    -12.45989954	      0.88580472	     -1.13450830	     38.62716118	     12.28930573	     68.02413616	    120.50937848	    103.76376908	     55.48762429	      8.03139522	     66.32317119	    127.04270425	     86.42115351
      0.06666670	     10.94123391	     -4.79004665	     12.36172054	      0.84249079	      0.92224194	     -0.04274127	     28.60480180	     -1.01331677	     -2.15914234	      9.85651966	      0.17202872	    -13.05791493	     -2.83420487	     -6.97903034	     -7.32423948	      2.30387147	      9.48701320	      9.53338373	      0.16638893	      9.94553727	    -11.22788590	     -6.97903034	    -12.37446800	      1.99792050	     -1.03856576	     38.10308883	     12.14962524	     68.54080408	    119.85861493	    101.96892724	     55.24487525	      8.33950927	     66.46734384	    126.86433322	     82.99491163
      0.08333330	     11.04227152	     -4.99744052	     12.75819329	      0.83746109	      0.92119093	     -0.04064099	     28.98582099	     -0.85494059	     -2.29218942	     10.67027199	      0.18623138	    -12.75796937	     -3.12554825	     -7.09605059	     -7.44585611	      1.80611007	      9.45352360	      9.01962910	      0.15742223	      9.46475607	    -10.43360042	     -7.09605059	    -12.37836359	      2.49322817	     -1.33601638	     38.15002788	     12.30274812	     68.72650861	    118.94927687	    100.39136284	     55.82331521	      8.33651466	     66.43132940	    126.52069849	     78.76045730
      0.10000000	     11.16289575	     -5.09587429	     13.13246866	      0.83776347	      0.92090500	     -0.04132900	     29.22938665	     -0.92301084	     -2.49331347	     11.35327906	      0.19815210	    -12.52442618	     -3.22403716	     -7.14771721	     -7.41728863	      1.51992080	      9.37325891	      8.88630444	      0.15509527	      9.11578868	     -9.84723246	     -7.14771721	    -12.51510935	      2.84319945	     -1.49471135	     38.17903701	     12.45991635	     68.73481249	    118.29011441	     97.42459850	     56.30260062	      8.42579033	     66.33914723	    126.34311085	     76.91589591
      0.11666670	     11.11433961	     -5.28013986	     13.24049094	      0.83790118	      0.92100921	     -0.04181428	     29.47069257	     -0.81893256	     -2.51829948	     11.78702109	      0.20572233	    -12.81875850	     -3.53924114	     -7.18524297	     -7.26468165	      1.26283192	      9.23171009	      8.71255494	      0.15206277	      8.64323154	     -9.60542888	     -7.18524297	    -12.55620453	      3.32333166	     -1.52024829	     38.20042549	     12.63418273	     68.91940060	    117.77933151	     95.80650258	     56.18904100	      8.57646337	     66.19199769	    126.34636995	     75.21947145
      0.13333330	     11.18796102	     -5.33697066	     13.30635158	      0.83793703	      0.92098218	     -0.04200470	     29.40240360	     -0.78937141	     -2.58544306	     12.06219640	      0.21052504	    -12.97044048	     -4.23700554	     -7.21350679	     -7.24491421	      1.13703375	      9.08998717	      8.64604947	      0.15090203	      8.34433814	     -9.49383259	     -7.21350679	    -12.68448899	      3.53359023	     -1.42663992	     38.34320545	     12.70047670	     68.90400309	    117.53478673	     94.87140405	     56.13396539	      8.76314004	     66.10470782	    126.19619122	     74.18372834
      0.15000000	     11.16905905	     -5.33222567	     13.28813502	      0.84271173	      0.92160768	     -0.04474718	     29.20591950	     -0.83580452	     -2.67061402	     12.12730371	      0.21166138	    -12.96124795	     -4.31031929	     -7.21375621	     -7.34415085	      1.17760141	      9.01378450	      8.65608580	      0.15107720	      8.27722989	     -9.49535888	     -7.21375621	    -12.53433669	      3.63542822	     -1.42768199	     38.30312281	     12.71235635	     68.89722369	    117.53113800	     94.87479351	     56.03592901	      8.84493434	     66.14792582	    126.20672629	     74.16893919
      0.16666670	     11.27212838	     -5.61362980	     13.22956634	      0.84250407	      0.92193902	     -0.04477525	     28.68590615	     -0.55300567	     -3.00924070	     11.66282406	      0.20355468	    -13.05979250	     -4.51568030	     -7.27798875	     -7.63632225	      0.88147990	      8.64609728	      8.41792409	      0.14692049	      8.02635789	     -9.30307744	     -7.27798875	    -12.49380122	      4.04964748	     -1.20734831	     37.97735625	     12.57631034	     68.73537460	    117.53022522	     91.59566498	     55.16208433	      9.19009642	     66.31091034	    126.19901113	     71.58727501
      0.18333330	     11.18880857	     -5.77477014	     13.12889954	      0.84226871	      0.91964203	     -0.04426255	     28.62954705	     -0.37735914	     -3.16610326	     11.28913368	      0.19703255	    -13.00855180	     -4.09799096	     -7.30963748	     -7.42612189	      0.73089107	      8.58784561	      8.76231997	      0.15293133	      8.26190151	     -9.08069701	     -7.30963748	    -12.28648154	      4.15866118	     -1.11264531	     38.05364744	     12.52279935	     68.53003858	    118.02139686	     89.68942247	     55.18688916	      9.31345517	     66.35389988	    126.24362291	     70.22570760
      0.20000000	     11.11511123	     -5.73928259	     13.15493175	      0.83738818	      0.92167355	     -0.04171487	     28.67688978	     -0.38837199	     -3.22115872	     10.95204292	      0.19114921	    -13.34021117	     -3.87316854	     -7.31086955	     -7.05024036	      0.75256722	      8.45577315	      9.04387621	      0.15784542	      7.96270777	     -9.07447538	     -7.31086955	    -12.42241592	      4.01074247	     -1.03043671	     38.29876737	     12.63823840	     68.41021948	    118.32878265	     89.81009871	     55.57983651	      9.37920313	     66.40140206	    126.18236286	     70.16944084
      0.21666670	     11.11413259	     -5.65504488	     13.32558469	      0.83767870	      0.92144967	     -0.04174549	     28.76557406	     -0.59158536	     -3.66245754	     10.88474612	      0.18997466	    -13.53820894	     -3.77199996	     -7.31694679	     -6.89407765	      0.76188919	      8.89007198	      9.18713765	      0.16034580	      7.94353308	     -9.00754646	     -7.31694679	    -12.59297034	      3.74714354	     -0.81229229	     38.61801612	     12.54157888	     68.23871069	    118.99340904	     89.14225852	     56.22508189	      9.62867907	     66.54560334	    126.19501094	     69.60681551
